<svg xmlns="http://www.w3.org/2000/svg" width="20.03" height="16" viewBox="0 0 20.03 16">
  <metadata><?xpacket begin="﻿" id="W5M0MpCehiHzreSzNTczkc9d"?>
<x:xmpmeta xmlns:x="adobe:ns:meta/" x:xmptk="Adobe XMP Core 5.6-c138 79.159824, 2016/09/14-01:09:01        ">
   <rdf:RDF xmlns:rdf="http://www.w3.org/1999/02/22-rdf-syntax-ns#">
      <rdf:Description rdf:about=""/>
   </rdf:RDF>
</x:xmpmeta>
                                                                                                    
                                                                                                    
                                                                                                    
                                                                                                    
                                                                                                    
                                                                                                    
                                                                                                    
                                                                                                    
                                                                                                    
                                                                                                    
                                                                                                    
                                                                                                    
                                                                                                    
                                                                                                    
                                                                                                    
                                                                                                    
                                                                                                    
                                                                                                    
                                                                                                    
                                                                                                    
                           
<?xpacket end="w"?></metadata>
<defs>
    <style>
      .cls-1 {
        fill: #333;
        fill-rule: evenodd;
      }
    </style>
  </defs>
  <path id="Icon_twitter" data-name="Icon twitter" class="cls-1" d="M1173.97,4238.96a3.748,3.748,0,0,1,2.7,1.12,7.779,7.779,0,0,0,2.35-.86,3.636,3.636,0,0,1-1.62,1.96,7.536,7.536,0,0,0,2.12-.56,7.193,7.193,0,0,1-1.85,1.84l0.01,0.46a10.243,10.243,0,0,1-10.52,10.12,10.774,10.774,0,0,1-5.67-1.6,8.637,8.637,0,0,0,.88.04,7.64,7.64,0,0,0,4.6-1.51,3.7,3.7,0,0,1-3.46-2.47,4.049,4.049,0,0,0,.7.06,3.848,3.848,0,0,0,.97-0.12,3.6,3.6,0,0,1-2.96-3.49v-0.04a3.907,3.907,0,0,0,1.67.44,3.516,3.516,0,0,1-1.64-2.96,3.383,3.383,0,0,1,.5-1.78,10.644,10.644,0,0,0,7.62,3.71,3.592,3.592,0,0,1-.1-0.81,3.63,3.63,0,0,1,3.7-3.55m5.55,1.66h0m-5.55-2.63a4.636,4.636,0,0,0-4.69,4.25,9.681,9.681,0,0,1-5.76-3.24,0.992,0.992,0,0,0-.77-0.36,0.22,0.22,0,0,0-.08.01,1,1,0,0,0-.79.47,4.411,4.411,0,0,0-.63,2.27,4.351,4.351,0,0,0,.36,1.75,0.934,0.934,0,0,0-.39.77v0.04a4.406,4.406,0,0,0,1.36,3.18,1,1,0,0,0-.02.66,4.539,4.539,0,0,0,1.9,2.4,6.581,6.581,0,0,1-2.09.33,6.854,6.854,0,0,1-.77-0.04,0.375,0.375,0,0,0-.11-0.01,1,1,0,0,0-.94.64,0.953,0.953,0,0,0,.4,1.14,11.862,11.862,0,0,0,6.21,1.75,11.183,11.183,0,0,0,11.52-11.07,8.008,8.008,0,0,0,1.65-1.74,0.952,0.952,0,0,0,.19-0.57,0.966,0.966,0,0,0-.62-0.89,1.945,1.945,0,0,1,.08-0.22,0.966,0.966,0,0,0-.33-1.05,1.038,1.038,0,0,0-.63-0.21,1.059,1.059,0,0,0-.51.14,6.727,6.727,0,0,1-1.55.63,4.816,4.816,0,0,0-2.99-1.03h0Z" transform="translate(-1160.5 -4238)"/>
</svg>
