<svg xmlns="http://www.w3.org/2000/svg" width="12" height="20" viewBox="0 0 12 20">
  <metadata><?xpacket begin="﻿" id="W5M0MpCehiHzreSzNTczkc9d"?>
<x:xmpmeta xmlns:x="adobe:ns:meta/" x:xmptk="Adobe XMP Core 5.6-c138 79.159824, 2016/09/14-01:09:01        ">
   <rdf:RDF xmlns:rdf="http://www.w3.org/1999/02/22-rdf-syntax-ns#">
      <rdf:Description rdf:about=""/>
   </rdf:RDF>
</x:xmpmeta>
                                                                                                    
                                                                                                    
                                                                                                    
                                                                                                    
                                                                                                    
                                                                                                    
                                                                                                    
                                                                                                    
                                                                                                    
                                                                                                    
                                                                                                    
                                                                                                    
                                                                                                    
                                                                                                    
                                                                                                    
                                                                                                    
                                                                                                    
                                                                                                    
                                                                                                    
                                                                                                    
                           
<?xpacket end="w"?></metadata>
<defs>
    <style>
      .cls-1 {
        fill: #333;
        fill-rule: evenodd;
      }
    </style>
  </defs>
  <path id="Icon_facebook" data-name="Icon facebook" class="cls-1" d="M1051.71,4237h2.39a0.376,0.376,0,0,1,.37.37v2.75a0.376,0.376,0,0,1-.37.37h-1.61c-1.11,0-1.31.42-1.31,1.25v1.73h2.8a0.386,0.386,0,0,1,.27.11,0.363,0.363,0,0,1,.11.26v2.96a0.378,0.378,0,0,1-.38.37h-2.8v7.46a0.371,0.371,0,0,1-.38.37h-3.13a0.369,0.369,0,0,1-.37-0.37v-7.46h-2.4a0.376,0.376,0,0,1-.37-0.37v-2.96a0.369,0.369,0,0,1,.37-0.37h2.4v-2.04a4.142,4.142,0,0,1,4.41-4.43m0-1h0a5.138,5.138,0,0,0-5.43,5.43v1.04h-1.38a1.383,1.383,0,0,0-1.39,1.37v2.96a1.383,1.383,0,0,0,1.39,1.37h1.38v6.46a1.376,1.376,0,0,0,1.39,1.37h3.13a1.385,1.385,0,0,0,1.4-1.37v-6.46h1.78a1.392,1.392,0,0,0,1.4-1.37v-2.96a1.323,1.323,0,0,0-.41-0.97,1.443,1.443,0,0,0-.99-0.4h-1.78v-0.73a1.557,1.557,0,0,1,.01-0.24,2.024,2.024,0,0,1,.28-0.01h1.61a1.383,1.383,0,0,0,1.39-1.37v-2.75a1.389,1.389,0,0,0-1.39-1.37h-2.39Z" transform="translate(-1043.5 -4236)"/>
</svg>
