<svg xmlns="http://www.w3.org/2000/svg" width="20" height="20" viewBox="0 0 20 20">
  <metadata><?xpacket begin="﻿" id="W5M0MpCehiHzreSzNTczkc9d"?>
<x:xmpmeta xmlns:x="adobe:ns:meta/" x:xmptk="Adobe XMP Core 5.6-c138 79.159824, 2016/09/14-01:09:01        ">
   <rdf:RDF xmlns:rdf="http://www.w3.org/1999/02/22-rdf-syntax-ns#">
      <rdf:Description rdf:about=""/>
   </rdf:RDF>
</x:xmpmeta>
                                                                                                    
                                                                                                    
                                                                                                    
                                                                                                    
                                                                                                    
                                                                                                    
                                                                                                    
                                                                                                    
                                                                                                    
                                                                                                    
                                                                                                    
                                                                                                    
                                                                                                    
                                                                                                    
                                                                                                    
                                                                                                    
                                                                                                    
                                                                                                    
                                                                                                    
                                                                                                    
                           
<?xpacket end="w"?></metadata>
<defs>
    <style>
      .cls-1 {
        fill: #333;
        fill-rule: evenodd;
      }
    </style>
  </defs>
  <path id="Icon_dribbble" data-name="Icon dribbble" class="cls-1" d="M1109.5,4236.5a10,10,0,1,0,10,10A10.016,10.016,0,0,0,1109.5,4236.5Zm9,10c0,0.1-.01.21-0.02,0.31a13.634,13.634,0,0,0-6.37-.56c-0.13-.38-0.26-0.75-0.39-1.09-0.1-.28-0.22-0.56-0.35-0.84a9.8,9.8,0,0,0,4.88-3.76A8.976,8.976,0,0,1,1118.5,4246.5Zm-2.98-6.68a8.778,8.778,0,0,1-4.58,3.59,38.6,38.6,0,0,0-3.6-5.64,9.128,9.128,0,0,1,2.16-.27A8.955,8.955,0,0,1,1115.52,4239.82Zm-9.2-1.73a39.646,39.646,0,0,1,3.66,5.63,37.906,37.906,0,0,1-9.31,1.04A9.007,9.007,0,0,1,1106.32,4238.09Zm-5.82,8.41c0-.25.02-0.5,0.04-0.75,0.12,0.01.3,0.01,0.51,0.01a37.435,37.435,0,0,0,9.34-1.11,0.037,0.037,0,0,1,.03-0.01q0.195,0.435.36,0.87c0.11,0.3.23,0.62,0.34,0.95a2.437,2.437,0,0,0-.26.06c-3.77,1.09-7.18,5.28-7.88,6.17A8.966,8.966,0,0,1,1100.5,4246.5Zm3.21,6.89c0.48-.62,3.88-4.88,7.43-5.91,0.1-.03.2-0.05,0.3-0.07,1.08,3.29,2.06,7.09,2.08,7.13h0.02A8.992,8.992,0,0,1,1103.71,4253.39Zm10.71,0.64c-0.24-.9-1.08-4.02-1.99-6.82a13.037,13.037,0,0,1,5.96.63A8.984,8.984,0,0,1,1114.42,4254.03Z" transform="translate(-1099.5 -4236.5)"/>
</svg>
