<svg xmlns="http://www.w3.org/2000/svg" width="19" height="15.031" viewBox="0 0 19 15.031">
  <metadata><?xpacket begin="﻿" id="W5M0MpCehiHzreSzNTczkc9d"?>
<x:xmpmeta xmlns:x="adobe:ns:meta/" x:xmptk="Adobe XMP Core 5.6-c138 79.159824, 2016/09/14-01:09:01        ">
   <rdf:RDF xmlns:rdf="http://www.w3.org/1999/02/22-rdf-syntax-ns#">
      <rdf:Description rdf:about=""/>
   </rdf:RDF>
</x:xmpmeta>
                                                                                                    
                                                                                                    
                                                                                                    
                                                                                                    
                                                                                                    
                                                                                                    
                                                                                                    
                                                                                                    
                                                                                                    
                                                                                                    
                                                                                                    
                                                                                                    
                                                                                                    
                                                                                                    
                                                                                                    
                                                                                                    
                                                                                                    
                                                                                                    
                                                                                                    
                                                                                                    
                           
<?xpacket end="w"?></metadata>
<defs>
    <style>
      .cls-1 {
        fill: #333;
        fill-rule: evenodd;
      }
    </style>
  </defs>
  <path id="icon_download" data-name="icon download" class="cls-1" d="M289.5,474.654a0.5,0.5,0,0,0-.5.492v2.169c0,2.824-1.1,3.574-2.166,3.574H275.167A3.444,3.444,0,0,1,272,477.315v-2.169a0.5,0.5,0,0,0-1,0v2.169a4.46,4.46,0,0,0,4.167,4.557h11.667c2.1,0,3.166-1.777,3.166-4.557v-2.169A0.5,0.5,0,0,0,289.5,474.654Zm-9.375,3.839a0.694,0.694,0,0,0,.875,0c0.266-.231,4.97-5,4.97-5a0.439,0.439,0,0,0,.088-0.348,0.538,0.538,0,0,0-.9-0.348L281,476.875v-9.544a0.5,0.5,0,0,0-1,0v9.544l-4.146-4.065a0.507,0.507,0,0,0-.708.012,0.514,0.514,0,0,0,0,.718C275.34,473.75,279.875,478.308,280.125,478.493Z" transform="translate(-271 -466.844)"/>
</svg>
