<svg xmlns="http://www.w3.org/2000/svg" width="17" height="20" viewBox="0 0 17 20">
  <metadata><?xpacket begin="﻿" id="W5M0MpCehiHzreSzNTczkc9d"?>
<x:xmpmeta xmlns:x="adobe:ns:meta/" x:xmptk="Adobe XMP Core 5.6-c138 79.159824, 2016/09/14-01:09:01        ">
   <rdf:RDF xmlns:rdf="http://www.w3.org/1999/02/22-rdf-syntax-ns#">
      <rdf:Description rdf:about=""/>
   </rdf:RDF>
</x:xmpmeta>
                                                                                                    
                                                                                                    
                                                                                                    
                                                                                                    
                                                                                                    
                                                                                                    
                                                                                                    
                                                                                                    
                                                                                                    
                                                                                                    
                                                                                                    
                                                                                                    
                                                                                                    
                                                                                                    
                                                                                                    
                                                                                                    
                                                                                                    
                                                                                                    
                                                                                                    
                                                                                                    
                           
<?xpacket end="w"?></metadata>
<defs>
    <style>
      .cls-1 {
        fill: #333;
        fill-rule: evenodd;
      }
    </style>
  </defs>
  <path id="Icon_apple" data-name="Icon apple" class="cls-1" d="M285.341,3310.28a3.048,3.048,0,0,1-1.837-2.82,3.27,3.27,0,0,1,1.457-2.59,1.006,1.006,0,0,0,.469-0.63,0.99,0.99,0,0,0-.139-0.77,5.261,5.261,0,0,0-4.133-2.22c-0.011,0-.02.01-0.03,0.01a4.964,4.964,0,0,0,.928-3.39,1.013,1.013,0,0,0-1.011-.87,4.7,4.7,0,0,0-3.382,1.58,5.356,5.356,0,0,0-1.224,2.99,4.434,4.434,0,0,0-1.722-.32,5.958,5.958,0,0,0-3.663,1.48,5.825,5.825,0,0,0-2.052,4.5c0,3.59,2.843,9.77,5.754,9.77a4.015,4.015,0,0,0,2.436-.65,0.85,0.85,0,0,1,.58-0.19,2.147,2.147,0,0,1,1.05.32,3.983,3.983,0,0,0,1.887.52c3.425,0,5.072-4.93,5.248-5.49A0.99,0.99,0,0,0,285.341,3310.28Zm-6.882-11.07a3.626,3.626,0,0,1,2.586-1.21,3.858,3.858,0,0,1-1.014,2.99,3.462,3.462,0,0,1-2.411,1.08,1.119,1.119,0,0,1-.166-0.01A4.178,4.178,0,0,1,278.459,3299.21Zm2.25,16.79c-1.21,0-1.659-.84-2.937-0.84s-1.025.84-3.016,0.84-4.735-5.4-4.735-8.77a4.99,4.99,0,0,1,4.7-4.98c1.718,0,1.913.89,3.055,0.89s1.278-.89,3.386-0.89a4.223,4.223,0,0,1,3.279,1.77,4.213,4.213,0,0,0-1.952,3.44,4.027,4.027,0,0,0,2.5,3.75S283.48,3316,280.709,3316Z" transform="translate(-269 -3297)"/>
</svg>
